# xmcd
#
# Track frame offsets:
#	150
#	14878
#	28666
#	52078
#	74584
#	88068
#	105362
#	118246
#	140745
#	168030
#
# Disc length: 2516 seconds
#
# Revision: 0
# Processed by: cddbd v1.5.2PL0 Copyright (c) Steve Scherf et al.
# Submitted via: AudioConverter v7.0 Copyright (c) D.R. Software
#
DISCID=9109d20a
DTITLE=RICK STEFFEN - MORE PALM TREES
DYEAR=2010
DGENRE=Pop
TTITLE0=MORE PALM TREES
TTITLE1=PARTY TIL MY SHIP COMES IN
TTITLE2=WEST END GIRL
TTITLE3=COTTAGE IN NEGRIL
TTITLE4=JOB CHANGE
TTITLE5=TOURIST TOWN
TTITLE6=DRINKS FOR THE BAND
TTITLE7=IGUANA
TTITLE8=RUSTY OLD HEART
TTITLE9=REGGAE MUSIC FLOWIN
EXTD=
EXTT0=MORE PALM TREES
EXTT1=PARTY TIL MY SHIP COMES IN
EXTT2=WEST END GIRL
EXTT3=COTTAGE IN NEGRIL
EXTT4=JOB CHANGE
EXTT5=TOURIST TOWN
EXTT6=DRINKS FOR THE BAND
EXTT7=IGUANA
EXTT8=RUSTY OLD HEART
EXTT9=REGGAE MUSIC FLOWIN
PLAYORDER=
